# xmcd
#
# Track frame offsets:
#	150
#	13445
#	24546
#	38430
#	50148
#	62841
#	74989
#	87216
#	100615
#	112897
#	123933
#	135869
#	150547
#	162053
#	173122
#	184951
#	196924
#	210870
#
# Disc length: 2961 seconds
#
# Revision: 1
# Processed by: cddbd v1.5.2PL0 Copyright (c) Steve Scherf et al.
# Submitted via: audiograbber 1.83.01
#
DISCID=eb0b8f12
DTITLE=Various Artist - Harmonica Blues (vol. 2) CD1 1946-1952
DYEAR=2003
DGENRE=Blues
TTITLE0=John Lee "Sonny Boy" Williamson - Hoodoo hoodoo
TTITLE1=Snooky Pryor - Boogie fool
TTITLE2=Jazz Gillum - Take one more chance with me
TTITLE3=John Lee "Sonny Boy" Williamson - Mellow chick swing
TTITLE4=Forest City Joe - A woman on every street
TTITLE5=John Lee "Sonny Boy" Williamson (Rice Miller) - Pontiac blues
TTITLE6=Doctor Ross - My bebop gal
TTITLE7=Big Walter Horton - Little boy blue
TTITLE8=Frank Edwards - Love my baby
TTITLE9=K.C. Douglas and Sidney Maiden - Mercury boogie
TTITLE10=J.D.Horton (Ole Sonny Boy) - Cadillac blues
TTITLE11=Elder R. Wilson - Better get ready
TTITLE12=Billy Brazos - Brazos blues
TTITLE13=Pee Wee Hugues - Santa fe blues
TTITLE14=Sam Kelly - Rambling around my blues
TTITLE15=Joe Hill Louis - Walkin' talkin' blues
TTITLE16=Big Walter Horton - Now tell me baby
TTITLE17=John Lee "Sonny Boy" Williamson (Rice Miller) - Mr downchild
EXTD=
EXTT0=
EXTT1=
EXTT2=
EXTT3=
EXTT4=
EXTT5=
EXTT6=
EXTT7=
EXTT8=
EXTT9=
EXTT10=
EXTT11=
EXTT12=
EXTT13=
EXTT14=
EXTT15=
EXTT16=
EXTT17=
PLAYORDER=
